# xmcd
#
# Track frame offsets: 
#        150
#        4434
#        30807
#        44071
#        51420
#        65191
#        67922
#        71517
#        85198
#        107280
#        127655
#        138181
#        149835
#        170775
#        185473
#        199572
#        218645
#        239042
#        240588
#        251782
#        257042
#        275418
#        286153
#        301136
#        322606
#
# Disc length: 4417 seconds
#
# Revision: 10
# Processed by: cddbd v1.5.2PL0 Copyright (c) Steve Scherf et al.
# Submitted via: ExactAudioCopy v0.99pb5
#
DISCID=6e113f19
DTITLE=2Pac - The Rose That Grew From Concrete Vol. 1
DYEAR=2000
DGENRE=Hip-Hop
TTITLE0=Tupac Interlude
TTITLE1=Wake Me When I'm Free (feat. Babatunde Olatunji and Sikiru Adepo
TTITLE1=ju)
TTITLE2=Can U C The Pride In The Panthers (Male Version) (feat. Mos De
TTITLE2=f)
TTITLE3=When Ure Heart Turns Cold (feat. Sonia Sanchez)
TTITLE4=U R Rippin Us Apart (feat. Dead Prez)
TTITLE5=Tears Of A Teenage Mother (feat. Jasmine Guy)
TTITLE6=God (feat. Reverend Run)
TTITLE7=And, Still I Love You (feat. Red Rat)
TTITLE8=Can U C The Pride In The Panthers (Female Version) (feat. Mos 
TTITLE8=Def)
TTITLE9=If There Be Pain (feat. Providence and RasDaveed El Harar)
TTITLE10=A River That Flows Forever (feat. Danny Glover, Afeni Shakur 
TTITLE10=& Cast)
TTITLE11=The Rose That Grew From Concrete (feat. Nikki Giovanni)
TTITLE12=In The Event Of My Demise (feat. Outlawz and Geronimo Ji Jaga)
TTITLE13=What Of A Love Unspoken (feat. Tre from Pharcyde)
TTITLE14=Sometimes I Cry (feat. Dan Rockett)
TTITLE15=The Fear In The Heart Of A Man (feat. Q-Tip)
TTITLE16=Starry Night (feat. Quincy Jones and Mac Mall)
TTITLE17=What Of Fame? (feat. Russell Simmons)
TTITLE18=Only 4 The Righteous (feat. Rha Goddess)
TTITLE19=Why Must U Be Unfaithful (feat. Sarah Jones)
TTITLE20=Wife 4 Life (feat. 4th Avenue Jones' and KCi)
TTITLE21=Lady Liverty Needs Glasses (feat. Malcolm Jamal Warner)
TTITLE22=Family Tree (feat. Lamar Antwon Robinson and The IMPACT Reperto
TTITLE22=ry Theatre Group)
TTITLE23=Thug Blues (feat. Lamar Antwon Robinson and The IMPACT Repertor
TTITLE23=y Theatre Group)
TTITLE24=The Sun and The Moon (feat. Chief Okena Littlehawk)
EXTD=YEAR: 2000
EXTT0=
EXTT1=
EXTT2=male version
EXTT3=
EXTT4=
EXTT5=
EXTT6=
EXTT7=
EXTT8=Female Version
EXTT9=
EXTT10=
EXTT11=
EXTT12=
EXTT13=
EXTT14=
EXTT15=
EXTT16=
EXTT17=
EXTT18=
EXTT19=
EXTT20=
EXTT21=
EXTT22=
EXTT23=
EXTT24=
PLAYORDER=
